                                                                        S      1
,,17HLink Connector v2,17HLink Connector v2,7Hunknown,7Hunknown,32,38,7,G      1
99,15,,1.,2,2HMM,1,0.08,15H20230206.163247,0.01,10000.,7Hunknown,7HunknoG      2
wn,11,0,15H20230202.170402;                                             G      3
     186       1                                                00000000D      1
     186            -175       1       0                               0D      2
     514       2                                                00010000D      3
     514                       2       1                               0D      4
     510       4                                                00010000D      5
     510            -175       1       1                               0D      6
     510       5                                                00010000D      7
     510            -175       1       1                               0D      8
     510       6                                                00010000D      9
     510            -175       1       1                               0D     10
     510       7                                                00010000D     11
     510            -175       1       1                               0D     12
     510       8                                                00010000D     13
     510            -175       1       1                               0D     14
     510       9                                                00010000D     15
     510            -175       1       1                               0D     16
     510      10                                                00010000D     17
     510            -175       1       1                               0D     18
     510      11                                                00010000D     19
     510            -175       1       1                               0D     20
     510      12                                                00010000D     21
     510            -175       1       1                               0D     22
     510      13                                                00010000D     23
     510            -175       1       1                               0D     24
     510      14                                                00010000D     25
     510            -175       1       1                               0D     26
     510      15                                                00010000D     27
     510            -175       1       1                               0D     28
     510      16                                                00010000D     29
     510            -175       1       1                               0D     30
     510      17                                                00010000D     31
     510            -175       1       1                               0D     32
     508      18                                                00010000D     33
     508                       1       1                               0D     34
     508      19                                                00010000D     35
     508                       1       1                               0D     36
     508      20                                                00010000D     37
     508                       1       1                               0D     38
     508      21                                                00010000D     39
     508                       1       1                               0D     40
     508      22                                                00010000D     41
     508                       1       1                               0D     42
     508      23                                                00010000D     43
     508                       1       1                               0D     44
     508      24                                                00010000D     45
     508                       1       1                               0D     46
     508      25                                                00010000D     47
     508                       1       1                               0D     48
     508      26                                                00010000D     49
     508                       1       1                               0D     50
     508      27                                                00010000D     51
     508                       1       1                               0D     52
     508      28                                                00010000D     53
     508                       1       1                               0D     54
     508      29                                                00010000D     55
     508                       1       1                               0D     56
     508      30                                                00010000D     57
     508                       1       1                               0D     58
     508      31                                                00010000D     59
     508                       1       1                               0D     60
     508      32                                                00010000D     61
     508                       1       1                               0D     62
     508      33                                                00010000D     63
     508                       1       1                               0D     64
     508      34                                                00010000D     65
     508                       1       1                               0D     66
     508      35                                                00010000D     67
     508                       1       1                               0D     68
     126      36                                                00010000D     69
     126       0               2       0                               0D     70
     126      38                                                00010000D     71
     126       0               2       0                               0D     72
     126      40                                                00010000D     73
     126       0               2       0                               0D     74
     126      42                                                00010000D     75
     126       0               2       0                               0D     76
     126      44                                                00010000D     77
     126       0               2       0                               0D     78
     126      46                                                00010000D     79
     126       0               2       0                               0D     80
     126      48                                                00010000D     81
     126       0               2       0                               0D     82
     126      50                                                00010000D     83
     126       0               2       0                               0D     84
     126      52                                                00010000D     85
     126       0               2       0                               0D     86
     126      54                                                00010000D     87
     126       0               2       0                               0D     88
     126      56                                                00010000D     89
     126       0               2       0                               0D     90
     126      58                                                00010000D     91
     126       0               2       0                               0D     92
     126      60                                                00010000D     93
     126       0               2       0                               0D     94
     126      62                                                00010000D     95
     126       0               2       0                               0D     96
     126      64                                                00010000D     97
     126       0               2       0                               0D     98
     126      66                                                00010000D     99
     126       0               2       0                               0D    100
     126      68                                                00010000D    101
     126       0               2       0                               0D    102
     126      70                                                00010000D    103
     126       0               2       0                               0D    104
     126      72                                                00010000D    105
     126       0               2       0                               0D    106
     126      74                                                00010000D    107
     126       0               2       0                               0D    108
     126      76                                                00010000D    109
     126       0               2       0                               0D    110
     126      78                                                00010000D    111
     126       0               2       0                               0D    112
     126      80                                                00010000D    113
     126       0               2       0                               0D    114
     126      82                                                00010000D    115
     126       0               2       0                               0D    116
     126      84                                                00010000D    117
     126       0               2       0                               0D    118
     126      86                                                00010000D    119
     126       0               2       0                               0D    120
     126      88                                                00010000D    121
     126       0               2       0                               0D    122
     126      90                                                00010000D    123
     126       0               2       0                               0D    124
     126      92                                                00010000D    125
     126       0               2       0                               0D    126
     126      94                                                00010000D    127
     126       0               2       0                               0D    128
     126      96                                                00010000D    129
     126       0               2       0                               0D    130
     126      98                                                00010000D    131
     126       0               2       0                               0D    132
     126     100                                                00010000D    133
     126       0               2       0                               0D    134
     126     102                                                00010000D    135
     126       0               2       0                               0D    136
     126     104                                                00010000D    137
     126       0               2       0                               0D    138
     126     106                                                00010000D    139
     126       0               2       0                               0D    140
     128     108                                                00010000D    141
     128       0    -175       3       0                               0D    142
     128     111                                                00010000D    143
     128       0    -175       3       0                               0D    144
     128     114                                                00010000D    145
     128       0    -175       3       0                               0D    146
     128     117                                                00010000D    147
     128       0    -175       3       0                               0D    148
     128     120                                                00010000D    149
     128       0    -175       4       0                               0D    150
     128     124                                                00010000D    151
     128       0    -175       4       0                               0D    152
     128     128                                                00010000D    153
     128       0    -175       4       0                               0D    154
     128     132                                                00010000D    155
     128       0    -175       4       0                               0D    156
     128     136                                                00010000D    157
     128       0    -175       3       0                               0D    158
     128     139                                                00010000D    159
     128       0    -175       3       0                               0D    160
     128     142                                                00010000D    161
     128       0    -175       3       0                               0D    162
     128     145                                                00010000D    163
     128       0    -175       3       0                               0D    164
     128     148                                                00010000D    165
     128       0    -175       3       0                               0D    166
     128     151                                                00010000D    167
     128       0    -175       3       0                               0D    168
     502     154                                                00010000D    169
     502                       6       1                               0D    170
     504     160                                                00010001D    171
     504                      10       1                               0D    172
     406     170                                                00000000D    173
     406                       1      15                               0D    174
     314     171                                                00000200D    175
     314                       2       0                               0D    176
     314     173                                                00000200D    177
     314                       2       0                               0D    178
186,3,1,0,0,1,173;                                                     1P      1
514,14,5,1,7,1,9,1,11,1,13,1,15,1,17,1,19,1,21,1,23,1,25,1,27,1,       3P      2
29,1,31,1;                                                             3P      3
510,141,1,1,33;                                                        5P      4
510,143,1,1,35;                                                        7P      5
510,145,1,1,37;                                                        9P      6
510,147,1,1,39;                                                       11P      7
510,149,1,1,41;                                                       13P      8
510,151,1,1,43;                                                       15P      9
510,153,1,1,45;                                                       17P     10
510,155,1,1,47;                                                       19P     11
510,157,1,1,49;                                                       21P     12
510,159,2,1,51,53;                                                    23P     13
510,161,1,1,55;                                                       25P     14
510,163,2,1,57,59;                                                    27P     15
510,165,2,1,61,63;                                                    29P     16
510,167,2,1,65,67;                                                    31P     17
508,4,0,171,1,0,0,0,171,2,0,0,0,171,3,0,0,0,171,4,1,0;                33P     18
508,4,0,171,5,0,0,0,171,4,0,0,0,171,6,0,0,0,171,7,1,0;                35P     19
508,4,0,171,8,0,0,0,171,7,0,0,0,171,9,0,0,0,171,10,1,0;               37P     20
508,4,0,171,11,0,0,0,171,10,0,0,0,171,12,0,0,0,171,2,1,0;             39P     21
508,4,0,171,13,0,0,0,171,14,0,0,0,171,15,0,0,0,171,16,1,0;            41P     22
508,4,0,171,17,0,0,0,171,16,0,0,0,171,18,0,0,0,171,19,1,0;            43P     23
508,4,0,171,20,0,0,0,171,19,0,0,0,171,21,0,0,0,171,22,1,0;            45P     24
508,4,0,171,23,0,0,0,171,22,0,0,0,171,24,0,0,0,171,14,1,0;            47P     25
508,4,0,171,25,0,0,0,171,26,1,0,0,171,27,0,0,0,171,28,0,0;            49P     26
508,4,0,171,29,0,0,0,171,28,1,0,0,171,30,0,0,0,171,31,0,0;            51P     27
508,4,0,171,9,1,0,0,171,6,1,0,0,171,3,1,0,0,171,12,1,0;               53P     28
508,4,0,171,32,0,0,0,171,31,1,0,0,171,33,0,0,0,171,34,0,0;            55P     29
508,4,0,171,35,0,0,0,171,34,1,0,0,171,36,0,0,0,171,26,0,0;            57P     30
508,4,0,171,8,1,0,0,171,11,1,0,0,171,1,1,0,0,171,5,1,0;               59P     31
508,4,0,171,36,1,0,0,171,33,1,0,0,171,30,1,0,0,171,27,1,0;            61P     32
508,4,0,171,21,1,0,0,171,18,1,0,0,171,15,1,0,0,171,24,1,0;            63P     33
508,4,0,171,35,1,0,0,171,25,1,0,0,171,29,1,0,0,171,32,1,0;            65P     34
508,4,0,171,20,1,0,0,171,23,1,0,0,171,13,1,0,0,171,17,1,0;            67P     35
126,1,1,0,0,1,0,-1.125,-1.125,-0.125,-0.125,1.,1.,1.25,7.5,12.5,      69P     36
1.25,7.5,2.5,-1.125,-0.125,0.,0.,0.;                                  69P     37
126,1,1,0,0,1,0,0.,0.,1.5,1.5,1.,1.,1.25,-7.5,12.5,1.25,7.5,          71P     38
12.5,0.,1.5,0.,0.,0.;                                                 71P     39
126,1,1,0,0,1,0,0.125,0.125,1.125,1.125,1.,1.,1.25,-7.5,2.5,          73P     40
1.25,-7.5,12.5,0.125,1.125,0.,0.,0.;                                  73P     41
126,1,1,0,0,1,0,0.,0.,1.5,1.5,1.,1.,1.25,-7.5,2.5,1.25,7.5,2.5,       75P     42
0.,1.5,0.,0.,0.;                                                      75P     43
126,1,1,0,0,1,0,-1.125,-1.125,-0.125,-0.125,1.,1.,1.25,7.5,2.5,       77P     44
11.25,7.5,2.5,-1.125,-0.125,0.,0.,0.;                                 77P     45
126,1,1,0,0,1,0,-1.25,-1.25,-0.25,-0.25,1.,1.,11.25,-7.5,2.5,         79P     46
1.25,-7.5,2.5,-1.25,-0.25,0.,0.,0.;                                   79P     47
126,1,1,0,0,1,0,0.,0.,1.5,1.5,1.,1.,11.25,-7.5,2.5,11.25,7.5,         81P     48
2.5,0.,1.5,0.,0.,0.;                                                  81P     49
126,1,1,0,0,1,0,-0.375,-0.375,0.625,0.625,1.,1.,11.25,7.5,2.5,        83P     50
11.25,7.5,12.5,-0.375,0.625,0.,0.,0.;                                 83P     51
126,1,1,0,0,1,0,-0.625,-0.625,0.375,0.375,1.,1.,11.25,-7.5,12.5,      85P     52
11.25,-7.5,2.5,-0.625,0.375,0.,0.,0.;                                 85P     53
126,1,1,0,0,1,0,0.,0.,1.5,1.5,1.,1.,11.25,-7.5,12.5,11.25,7.5,        87P     54
12.5,0.,1.5,0.,0.,0.;                                                 87P     55
126,1,1,0,0,1,0,-0.375,-0.375,0.625,0.625,1.,1.,11.25,7.5,12.5,       89P     56
1.25,7.5,12.5,-0.375,0.625,0.,0.,0.;                                  89P     57
126,1,1,0,0,1,0,0.75,0.75,1.75,1.75,1.,1.,1.25,-7.5,12.5,11.25,       91P     58
-7.5,12.5,0.75,1.75,0.,0.,0.;                                         91P     59
126,1,1,0,0,1,0,-0.75,-0.75,0.25,0.25,1.,1.,-11.25,5.,0.,-11.25,      93P     60
-5.,0.,-0.75,0.25,0.,0.,0.;                                           93P     61
126,1,1,0,0,1,0,0.,0.,1.5,1.5,1.,1.,-11.25,5.,15.,-11.25,5.,0.,       95P     62
0.,1.5,0.,0.,0.;                                                      95P     63
126,1,1,0,0,1,0,-0.25,-0.25,0.75,0.75,1.,1.,-11.25,-5.,15.,           97P     64
-11.25,5.,15.,-0.25,0.75,0.,0.,0.;                                    97P     65
126,1,1,0,0,1,0,0.,0.,1.5,1.5,1.,1.,-11.25,-5.,15.,-11.25,-5.,        99P     66
0.,0.,1.5,0.,0.,0.;                                                   99P     67
126,1,1,0,0,1,0,-1.0625,-1.0625,-0.0625,-0.0625,1.,1.,-11.25,        101P     68
-5.,0.,-1.25,-5.,0.,-1.0625,-0.0625,0.,0.,0.;                        101P     69
126,1,1,0,0,1,0,0.0625,0.0625,1.0625,1.0625,1.,1.,-1.25,-5.,15.,     103P     70
-11.25,-5.,15.,0.0625,1.0625,0.,0.,0.;                               103P     71
126,1,1,0,0,1,0,0.,0.,1.5,1.5,1.,1.,-1.25,-5.,15.,-1.25,-5.,0.,      105P     72
0.,1.5,0.,0.,0.;                                                     105P     73
126,1,1,0,0,1,0,-0.75,-0.75,0.25,0.25,1.,1.,-1.25,-5.,0.,-1.25,      107P     74
5.,0.,-0.75,0.25,0.,0.,0.;                                           107P     75
126,1,1,0,0,1,0,-0.25,-0.25,0.75,0.75,1.,1.,-1.25,5.,15.,-1.25,      109P     76
-5.,15.,-0.25,0.75,0.,0.,0.;                                         109P     77
126,1,1,0,0,1,0,0.,0.,1.5,1.5,1.,1.,-1.25,5.,15.,-1.25,5.,0.,0.,     111P     78
1.5,0.,0.,0.;                                                        111P     79
126,1,1,0,0,1,0,-0.4375,-0.4375,0.5625,0.5625,1.,1.,-1.25,5.,0.,     113P     80
-11.25,5.,0.,-0.4375,0.5625,0.,0.,0.;                                113P     81
126,1,1,0,0,1,0,-0.5625,-0.5625,0.4375,0.4375,1.,1.,-11.25,5.,       115P     82
15.,-1.25,5.,15.,-0.5625,0.4375,0.,0.,0.;                            115P     83
126,1,1,0,0,1,0,0.,0.,1.5,1.5,1.,1.,13.75,7.5,0.,13.75,-7.5,0.,      117P     84
0.,1.5,0.,0.,0.;                                                     117P     85
126,1,1,0,0,1,0,0.,0.,1.5,1.5,1.,1.,13.75,7.5,0.,13.75,7.5,15.,      119P     86
0.,1.5,0.,0.,0.;                                                     119P     87
126,1,1,0,0,1,0,-1.5,-1.5,0.,0.,1.,1.,13.75,-7.5,15.,13.75,7.5,      121P     88
15.,-1.5,0.,0.,0.,0.;                                                121P     89
126,1,1,0,0,1,0,0.,0.,1.5,1.5,1.,1.,13.75,-7.5,0.,13.75,-7.5,        123P     90
15.,0.,1.5,0.,0.,0.;                                                 123P     91
126,1,1,0,0,1,0,0.,0.,2.75,2.75,1.,1.,13.75,-7.5,0.,-13.75,-7.5,     125P     92
0.,0.,2.75,0.,0.,0.;                                                 125P     93
126,1,1,0,0,1,0,-2.75,-2.75,0.,0.,1.,1.,-13.75,-7.5,15.,13.75,       127P     94
-7.5,15.,-2.75,0.,0.,0.,0.;                                          127P     95
126,1,1,0,0,1,0,0.,0.,1.5,1.5,1.,1.,-13.75,-7.5,0.,-13.75,-7.5,      129P     96
15.,0.,1.5,0.,0.,0.;                                                 129P     97
126,1,1,0,0,1,0,0.,0.,1.5,1.5,1.,1.,-13.75,-7.5,0.,-13.75,7.5,       131P     98
0.,0.,1.5,0.,0.,0.;                                                  131P     99
126,1,1,0,0,1,0,-1.5,-1.5,0.,0.,1.,1.,-13.75,7.5,15.,-13.75,         133P    100
-7.5,15.,-1.5,0.,0.,0.,0.;                                           133P    101
126,1,1,0,0,1,0,0.,0.,1.5,1.5,1.,1.,-13.75,7.5,0.,-13.75,7.5,        135P    102
15.,0.,1.5,0.,0.,0.;                                                 135P    103
126,1,1,0,0,1,0,0.,0.,2.75,2.75,1.,1.,-13.75,7.5,0.,13.75,7.5,       137P    104
0.,0.,2.75,0.,0.,0.;                                                 137P    105
126,1,1,0,0,1,0,-2.75,-2.75,0.,0.,1.,1.,13.75,7.5,15.,-13.75,        139P    106
7.5,15.,-2.75,0.,0.,0.,0.;                                           139P    107
128,1,1,1,1,0,0,1,0,0,-0.001,-0.001,1.001,1.001,-0.001,-0.001,       141P    108
1.501,1.501,1.,1.,1.,1.,1.25,-7.51,12.51,1.25,-7.51,2.49,1.25,       141P    109
7.51,12.51,1.25,7.51,2.49,-0.001,1.001,-0.001,1.501;                 141P    110
128,1,1,1,1,0,0,1,0,0,-0.001,-0.001,1.001,1.001,-0.001,-0.001,       143P    111
1.501,1.501,1.,1.,1.,1.,1.24,-7.51,2.5,11.26,-7.51,2.5,1.24,         143P    112
7.51,2.5,11.26,7.51,2.5,-0.001,1.001,-0.001,1.501;                   143P    113
128,1,1,1,1,0,0,1,0,0,-0.001,-0.001,1.001,1.001,-0.001,-0.001,       145P    114
1.501,1.501,1.,1.,1.,1.,11.25,-7.51,2.49,11.25,-7.51,12.51,          145P    115
11.25,7.51,2.49,11.25,7.51,12.51,-0.001,1.001,-0.001,1.501;          145P    116
128,1,1,1,1,0,0,1,0,0,-0.001,-0.001,1.001,1.001,-0.001,-0.001,       147P    117
1.501,1.501,1.,1.,1.,1.,11.26,-7.51,12.5,1.24,-7.51,12.5,11.26,      147P    118
7.51,12.5,1.24,7.51,12.5,-0.001,1.001,-0.001,1.501;                  147P    119
128,1,1,1,1,0,0,1,0,0,-0.001,-0.001,1.001,1.001,-0.001,-0.001,       149P    120
1.501,1.501,1.,1.,1.,1.,-11.25,5.01,15.01,-11.25,-5.01,15.01,        149P    121
-11.25,5.01,-0.0099999999999989,-11.25,-5.01,                        149P    122
-0.0099999999999989,-0.001,1.001,-0.001,1.501;                       149P    123
128,1,1,1,1,0,0,1,0,0,-0.001,-0.001,1.001,1.001,-0.001,-0.001,       151P    124
1.501,1.501,1.,1.,1.,1.,-11.26,-5.,15.01,-1.24,-5.,15.01,-11.26,     151P    125
-5.,-0.0099999999999989,-1.24,-5.,-0.0099999999999989,-0.001,        151P    126
1.001,-0.001,1.501;                                                  151P    127
128,1,1,1,1,0,0,1,0,0,-0.001,-0.001,1.001,1.001,-0.001,-0.001,       153P    128
1.501,1.501,1.,1.,1.,1.,-1.25,-5.01,15.01,-1.25,5.01,15.01,          153P    129
-1.25,-5.01,-0.0099999999999989,-1.25,5.01,-0.0099999999999989,      153P    130
-0.001,1.001,-0.001,1.501;                                           153P    131
128,1,1,1,1,0,0,1,0,0,-0.001,-0.001,1.001,1.001,-0.001,-0.001,       155P    132
1.501,1.501,1.,1.,1.,1.,-1.24,5.,15.01,-11.26,5.,15.01,-1.24,5.,     155P    133
-0.0099999999999989,-11.26,5.,-0.0099999999999989,-0.001,1.001,      155P    134
-0.001,1.501;                                                        155P    135
128,1,1,1,1,0,0,1,0,0,-0.001,-0.001,1.501,1.501,-0.001,-0.001,       157P    136
1.501,1.501,1.,1.,1.,1.,13.75,-7.51,-0.01,13.75,7.51,-0.01,          157P    137
13.75,-7.51,15.01,13.75,7.51,15.01,-0.001,1.501,-0.001,1.501;        157P    138
128,1,1,1,1,0,0,1,0,0,-0.001,-0.001,2.751,2.751,-0.001,-0.001,       159P    139
1.501,1.501,1.,1.,1.,1.,-13.76,-7.5,-0.01,13.76,-7.5,-0.01,          159P    140
-13.76,-7.5,15.01,13.76,-7.5,15.01,-0.001,2.751,-0.001,1.501;        159P    141
128,1,1,1,1,0,0,1,0,0,-0.001,-0.001,1.501,1.501,-0.001,-0.001,       161P    142
1.501,1.501,1.,1.,1.,1.,-13.75,7.51,-0.01,-13.75,-7.51,-0.01,        161P    143
-13.75,7.51,15.01,-13.75,-7.51,15.01,-0.001,1.501,-0.001,1.501;      161P    144
128,1,1,1,1,0,0,1,0,0,-0.001,-0.001,2.751,2.751,-0.001,-0.001,       163P    145
1.501,1.501,1.,1.,1.,1.,13.76,7.5,-0.01,-13.76,7.5,-0.01,13.76,      163P    146
7.5,15.01,-13.76,7.5,15.01,-0.001,2.751,-0.001,1.501;                163P    147
128,1,1,1,1,0,0,1,0,0,-1.376,-1.376,1.376,1.376,-0.751,-0.751,       165P    148
0.751,0.751,1.,1.,1.,1.,-13.76,-7.51,15.,13.76,-7.51,15.,-13.76,     165P    149
7.51,15.,13.76,7.51,15.,-1.376,1.376,-0.751,0.751;                   165P    150
128,1,1,1,1,0,0,1,0,0,-1.376,-1.376,1.376,1.376,-0.751,-0.751,       167P    151
0.751,0.751,1.,1.,1.,1.,13.76,-7.51,0.,-13.76,-7.51,0.,13.76,        167P    152
7.51,0.,-13.76,7.51,0.,-1.376,1.376,-0.751,0.751;                    167P    153
502,24,1.25,7.5,12.5,1.25,7.5,2.5,1.25,-7.5,12.5,1.25,-7.5,2.5,      169P    154
11.25,7.5,2.5,11.25,-7.5,2.5,11.25,7.5,12.5,11.25,-7.5,12.5,         169P    155
-11.25,5.,0.,-11.25,-5.,0.,-11.25,5.,15.,-11.25,-5.,15.,-1.25,       169P    156
-5.,0.,-1.25,-5.,15.,-1.25,5.,0.,-1.25,5.,15.,13.75,7.5,0.,          169P    157
13.75,-7.5,0.,13.75,7.5,15.,13.75,-7.5,15.,-13.75,-7.5,0.,           169P    158
-13.75,-7.5,15.,-13.75,7.5,0.,-13.75,7.5,15.;                        169P    159
504,36,69,169,1,169,2,71,169,3,169,1,73,169,4,169,3,75,169,4,        171P    160
169,2,77,169,2,169,5,79,169,6,169,4,81,169,6,169,5,83,169,5,169,     171P    161
7,85,169,8,169,6,87,169,8,169,7,89,169,7,169,1,91,169,3,169,8,       171P    162
93,169,9,169,10,95,169,11,169,9,97,169,12,169,11,99,169,12,169,      171P    163
10,101,169,10,169,13,103,169,14,169,12,105,169,14,169,13,107,        171P    164
169,13,169,15,109,169,16,169,14,111,169,16,169,15,113,169,15,        171P    165
169,9,115,169,11,169,16,117,169,17,169,18,119,169,17,169,19,121,     171P    166
169,20,169,19,123,169,18,169,20,125,169,18,169,21,127,169,22,        171P    167
169,20,129,169,21,169,22,131,169,21,169,23,133,169,24,169,22,        171P    168
135,169,23,169,24,137,169,23,169,17,139,169,19,169,24;               171P    169
406,1,5HBody1;                                                       173P    170
314,90.9803921568627,67.843137254902,13.7254901960784,30HPaint -     175P    171
 Enamel Glossy (Yellow);                                             175P    172
314,62.7450980392157,62.7450980392157,62.7450980392157,13HSteel      177P    173
- Satin;                                                             177P    174
S      1G      3D    178P    174                                        T      1
