                                                                        S      1
,,22HX Link End Effector v6,19HX Link End Effector,7Hunknown,7Hunknown, G      1
32,38,7,99,15,,1.,2,2HMM,1,0.08,15H20230206.163256,0.01,10000.,7HunknownG      2
,7Hunknown,11,0,15H20230206.104705;                                     G      3
     408       1                                       3        00000001D      1
     408       0               1       0                               0D      2
     124       2                                                00000000D      3
     124                       4       0                               0D      4
     308       6                                                00010200D      5
     308       0               1       0                               0D      6
     186       7                                                00010000D      7
     186            -237       1       0                               0D      8
     186       8                                                00000000D      9
     186            -237       1       0                               0D     10
     514       9                                                00010000D     11
     514                       1       1                               0D     12
     514      10                                                00010000D     13
     514                       1       1                               0D     14
     510      11                                                00010000D     15
     510            -237       1       1                               0D     16
     510      12                                                00010000D     17
     510            -237       1       1                               0D     18
     510      13                                                00010000D     19
     510            -237       1       1                               0D     20
     510      14                                                00010000D     21
     510            -237       1       1                               0D     22
     510      15                                                00010000D     23
     510            -237       1       1                               0D     24
     510      16                                                00010000D     25
     510            -237       1       1                               0D     26
     510      17                                                00010000D     27
     510            -237       1       1                               0D     28
     510      18                                                00010000D     29
     510            -237       1       1                               0D     30
     510      19                                                00010000D     31
     510            -237       1       1                               0D     32
     510      20                                                00010000D     33
     510            -237       1       1                               0D     34
     510      21                                                00010000D     35
     510            -237       1       1                               0D     36
     510      22                                                00010000D     37
     510            -237       1       1                               0D     38
     510      23                                                00010000D     39
     510            -237       1       1                               0D     40
     510      24                                                00010000D     41
     510            -237       1       1                               0D     42
     510      25                                                00010000D     43
     510            -237       1       1                               0D     44
     510      26                                                00010000D     45
     510            -237       1       1                               0D     46
     510      27                                                00010000D     47
     510            -237       1       1                               0D     48
     510      28                                                00010000D     49
     510            -237       1       1                               0D     50
     508      29                                                00010000D     51
     508                       2       1                               0D     52
     508      31                                                00010000D     53
     508                       2       1                               0D     54
     508      33                                                00010000D     55
     508                       1       1                               0D     56
     508      34                                                00010000D     57
     508                       1       1                               0D     58
     508      35                                                00010000D     59
     508                       1       1                               0D     60
     508      36                                                00010000D     61
     508                       1       1                               0D     62
     508      37                                                00010000D     63
     508                       1       1                               0D     64
     508      38                                                00010000D     65
     508                       1       1                               0D     66
     508      39                                                00010000D     67
     508                       1       1                               0D     68
     508      40                                                00010000D     69
     508                       1       1                               0D     70
     508      41                                                00010000D     71
     508                       1       1                               0D     72
     508      42                                                00010000D     73
     508                       1       1                               0D     74
     508      43                                                00010000D     75
     508                       2       1                               0D     76
     508      45                                                00010000D     77
     508                       1       1                               0D     78
     508      46                                                00010000D     79
     508                       1       1                               0D     80
     508      47                                                00010000D     81
     508                       1       1                               0D     82
     508      48                                                00010000D     83
     508                       1       1                               0D     84
     508      49                                                00010000D     85
     508                       2       1                               0D     86
     508      51                                                00010000D     87
     508                       1       1                               0D     88
     508      52                                                00010000D     89
     508                       1       1                               0D     90
     508      53                                                00010000D     91
     508                       1       1                               0D     92
     508      54                                                00010000D     93
     508                       1       1                               0D     94
     126      55                                                00010000D     95
     126       0               7       0                               0D     96
     126      62                                                00010000D     97
     126       0               5       0                               0D     98
     126      67                                                00010000D     99
     126       0               6       0                               0D    100
     126      73                                                00010000D    101
     126       0               5       0                               0D    102
     126      78                                                00010000D    103
     126       0               8       0                               0D    104
     126      86                                                00010000D    105
     126       0               2       0                               0D    106
     126      88                                                00010000D    107
     126       0               2       0                               0D    108
     126      90                                                00010000D    109
     126       0               2       0                               0D    110
     126      92                                                00010000D    111
     126       0               2       0                               0D    112
     126      94                                                00010000D    113
     126       0               2       0                               0D    114
     126      96                                                00010000D    115
     126       0               2       0                               0D    116
     126      98                                                00010000D    117
     126       0               2       0                               0D    118
     126     100                                                00010000D    119
     126       0               2       0                               0D    120
     126     102                                                00010000D    121
     126       0               2       0                               0D    122
     126     104                                                00010000D    123
     126       0               2       0                               0D    124
     126     106                                                00010000D    125
     126       0               2       0                               0D    126
     126     108                                                00010000D    127
     126       0               2       0                               0D    128
     126     110                                                00010000D    129
     126       0               2       0                               0D    130
     126     112                                                00010000D    131
     126       0               2       0                               0D    132
     126     114                                                00010000D    133
     126       0               2       0                               0D    134
     126     116                                                00010000D    135
     126       0               2       0                               0D    136
     126     118                                                00010000D    137
     126       0               2       0                               0D    138
     126     120                                                00010000D    139
     126       0               2       0                               0D    140
     126     122                                                00010000D    141
     126       0               2       0                               0D    142
     126     124                                                00010000D    143
     126       0               2       0                               0D    144
     126     126                                                00010000D    145
     126       0               2       0                               0D    146
     126     128                                                00010000D    147
     126       0               2       0                               0D    148
     126     130                                                00010000D    149
     126       0               2       0                               0D    150
     126     132                                                00010000D    151
     126       0               2       0                               0D    152
     126     134                                                00010000D    153
     126       0               2       0                               0D    154
     126     136                                                00010000D    155
     126       0               2       0                               0D    156
     126     138                                                00010000D    157
     126       0               2       0                               0D    158
     126     140                                                00010000D    159
     126       0               2       0                               0D    160
     126     142                                                00010000D    161
     126       0               2       0                               0D    162
     126     144                                                00010000D    163
     126       0               2       0                               0D    164
     126     146                                                00010000D    165
     126       0               2       0                               0D    166
     126     148                                                00010000D    167
     126       0               2       0                               0D    168
     126     150                                                00010000D    169
     126       0               2       0                               0D    170
     126     152                                                00010000D    171
     126       0              22       0                               0D    172
     126     174                                                00010000D    173
     126       0              23       0                               0D    174
     126     197                                                00010000D    175
     126       0              22       0                               0D    176
     126     219                                                00010000D    177
     126       0              24       0                               0D    178
     126     243                                                00010000D    179
     126       0              10       0                               0D    180
     126     253                                                00010000D    181
     126       0               2       0                               0D    182
     126     255                                                00010000D    183
     126       0               2       0                               0D    184
     126     257                                                00010000D    185
     126       0               2       0                               0D    186
     128     259                                                00010000D    187
     128       0    -237      32       0                               0D    188
     128     291                                                00010000D    189
     128       0    -237       3       0                               0D    190
     128     294                                                00010000D    191
     128       0    -237       3       0                               0D    192
     128     297                                                00010000D    193
     128       0    -237       3       0                               0D    194
     128     300                                                00010000D    195
     128       0    -237       3       0                               0D    196
     128     303                                                00010000D    197
     128       0    -237       3       0                               0D    198
     128     306                                                00010000D    199
     128       0    -237       3       0                               0D    200
     128     309                                                00010000D    201
     128       0    -237       3       0                               0D    202
     128     312                                                00010000D    203
     128       0    -237       3       0                               0D    204
     128     315                                                00010000D    205
     128       0    -237       3       0                               0D    206
     128     318                                                00010000D    207
     128       0    -237       3       0                               0D    208
     128     321                                                00010000D    209
     128       0    -237       3       0                               0D    210
     128     324                                                00010000D    211
     128       0    -237       3       0                               0D    212
     128     327                                                00010000D    213
     128       0    -237       3       0                               0D    214
     128     330                                                00010000D    215
     128       0    -237      49       0                               0D    216
     128     379                                                00010000D    217
     128       0    -237       3       0                               0D    218
     128     382                                                00010000D    219
     128       0    -237       3       0                               0D    220
     128     385                                                00010000D    221
     128       0    -237       3       0                               0D    222
     502     388                                                00010000D    223
     502                       5       1                               0D    224
     502     393                                                00010000D    225
     502                       6       1                               0D    226
     504     399                                                00010001D    227
     504                       8       1                               0D    228
     504     407                                                00010001D    229
     504                       5       1                               0D    230
     406     412                                                00000000D    231
     406                       1      15                               0D    232
     406     413                                                00000000D    233
     406                       1      15                               0D    234
     406     414                                                00000000D    235
     406                       1      15                               0D    236
     314     415                                                00000200D    237
     314                       2       0                               0D    238
     314     417                                                00000200D    239
     314                       2       0                               0D    240
408,5,0.,0.,0.,1.,0,1,233;                                             1P      1
124,1.,3.32186559109542D-30,1.42524880786254D-14,                      3P      2
-98.0000000000002,1.42524880786254D-14,-1.66533453693773D-16,          3P      3
-1.,-4.48530101948563D-12,-3.94430452610506D-31,1.,                    3P      4
-1.94289029309402D-16,-1.44955866891072D-27;                           3P      5
308,0,15HEnd Effector v5,1,7;                                          5P      6
186,11,1,0,0,1,231;                                                    7P      7
186,13,1,0,0,1,235;                                                    9P      8
514,11,15,1,17,1,19,1,21,1,23,1,25,1,27,1,29,1,31,1,33,1,35,1;        11P      9
514,7,37,1,39,1,41,1,43,1,45,1,47,1,49,1;                             13P     10
510,187,1,1,51;                                                       15P     11
510,189,1,1,53;                                                       17P     12
510,191,1,1,55;                                                       19P     13
510,193,1,1,57;                                                       21P     14
510,195,3,1,59,61,63;                                                 23P     15
510,197,1,1,65;                                                       25P     16
510,199,1,1,67;                                                       27P     17
510,201,1,1,69;                                                       29P     18
510,203,1,1,71;                                                       31P     19
510,205,1,1,73;                                                       33P     20
510,207,1,1,75;                                                       35P     21
510,209,1,1,77;                                                       37P     22
510,211,1,1,79;                                                       39P     23
510,213,2,1,81,83;                                                    41P     24
510,215,1,1,85;                                                       43P     25
510,217,1,1,87;                                                       45P     26
510,219,2,1,89,91;                                                    47P     27
510,221,1,1,93;                                                       49P     28
508,6,0,227,1,0,0,0,227,2,0,0,0,227,3,1,0,0,227,4,0,0,0,227,5,0,      51P     29
0,0,227,3,0,0;                                                        51P     30
508,8,0,227,6,1,0,0,227,7,1,0,0,227,8,1,0,0,227,9,0,0,0,227,10,       53P     31
0,0,0,227,11,1,0,0,227,12,1,0,0,227,13,0,0;                           53P     32
508,4,0,227,14,0,0,0,227,15,1,0,0,227,16,1,0,0,227,11,0,0;            55P     33
508,4,0,227,17,1,0,0,227,18,0,0,0,227,19,0,0,0,227,13,1,0;            57P     34
508,4,0,227,19,1,0,0,227,20,1,0,0,227,21,1,0,0,227,6,0,0;             59P     35
508,2,0,227,1,1,0,0,227,2,1,0;                                        61P     36
508,2,0,227,4,1,0,0,227,5,1,0;                                        63P     37
508,4,0,227,22,0,0,0,227,17,0,0,0,227,12,0,0,0,227,16,0,0;            65P     38
508,4,0,227,23,0,0,0,227,9,1,0,0,227,24,1,0,0,227,25,0,0;             67P     39
508,4,0,227,26,1,0,0,227,7,0,0,0,227,21,0,0,0,227,27,1,0;             69P     40
508,4,0,227,24,0,0,0,227,8,0,0,0,227,26,0,0,0,227,28,0,0;             71P     41
508,4,0,227,23,1,0,0,227,29,1,0,0,227,14,1,0,0,227,10,1,0;            73P     42
508,8,0,227,20,0,0,0,227,18,1,0,0,227,22,1,0,0,227,15,0,0,0,227,      75P     43
29,0,0,0,227,25,1,0,0,227,28,1,0,0,227,27,0,0;                        75P     44
508,4,0,229,1,0,0,0,229,2,0,0,0,229,3,0,0,0,229,4,0,0;                77P     45
508,4,0,229,4,1,0,0,229,5,1,0,0,229,6,1,0,0,229,7,0,0;                79P     46
508,4,0,229,3,1,0,0,229,8,1,0,0,229,9,0,0,0,229,5,0,0;                81P     47
508,2,0,229,10,1,0,0,229,11,1,0;                                      83P     48
508,6,0,229,12,0,0,0,229,13,0,0,0,229,14,1,0,0,229,10,0,0,0,229,      85P     49
11,0,0,0,229,14,0,0;                                                  85P     50
508,4,0,229,2,1,0,0,229,15,1,0,0,229,16,1,0,0,229,8,0,0;              87P     51
508,4,0,229,1,1,0,0,229,7,1,0,0,229,17,0,0,0,229,15,0,0;              89P     52
508,2,0,229,12,1,0,0,229,13,1,0;                                      91P     53
508,4,0,229,16,0,0,0,229,17,1,0,0,229,6,0,0,0,229,9,1,0;              93P     54
126,6,2,0,0,0,0,-1.5707963267949,-1.5707963267949,                    95P     55
-1.5707963267949,0.,0.,1.5707963267949,1.5707963267949,               95P     56
3.14159265358979,3.14159265358979,3.14159265358979,1.,                95P     57
0.707106781186549,1.,0.707106781186549,1.,0.707106781186549,1.,       95P     58
300.,-1.25,-7.,300.,-1.25,-8.25,300.,0.,-8.25,300.,1.25,-8.25,        95P     59
300.,1.25,-7.,300.,1.25,-5.75,300.,1.53080849893419D-16,-5.75,        95P     60
-1.5707963267949,3.14159265358979,0.,0.,0.;                           95P     61
126,2,2,0,0,0,0,3.14159265358979,3.14159265358979,                    97P     62
3.14159265358979,4.71238898038469,4.71238898038469,                   97P     63
4.71238898038469,1.,0.707106781186549,1.,300.,                        97P     64
1.53080849893419D-16,-5.75,300.,-1.25,-5.75,300.,-1.25,-7.,           97P     65
3.14159265358979,4.71238898038469,0.,0.,0.;                           97P     66
126,4,2,0,0,0,0,0.,0.,0.,1.5707963267949,1.5707963267949,             99P     67
3.14159265358979,3.14159265358979,3.14159265358979,1.,                99P     68
0.707106781186548,1.,0.707106781186548,1.,300.,                       99P     69
1.53080849893419D-16,-5.75,294.25,1.53080849893419D-16,-5.75,         99P     70
294.25,1.53080849893419D-16,0.,294.25,1.53080849893419D-16,5.75,      99P     71
300.,1.53080849893419D-16,5.75,0.,3.14159265358979,0.,0.,0.;          99P     72
126,2,2,0,0,0,0,1.5707963267949,1.5707963267949,1.5707963267949,     101P     73
3.14159265358979,3.14159265358979,3.14159265358979,1.,               101P     74
0.707106781186549,1.,300.,-1.25,7.,300.,-1.25,5.75,300.,             101P     75
-1.53080849893419D-16,5.75,1.5707963267949,3.14159265358979,0.,      101P     76
0.,0.;                                                               101P     77
126,6,2,0,0,0,0,3.14159265358979,3.14159265358979,                   103P     78
3.14159265358979,4.71238898038469,4.71238898038469,                  103P     79
6.28318530717959,6.28318530717959,7.85398163397448,                  103P     80
7.85398163397448,7.85398163397448,1.,0.707106781186549,1.,           103P     81
0.707106781186546,1.,0.707106781186549,1.,300.,                      103P     82
-1.53080849893419D-16,5.75,300.,1.25,5.75,300.,1.25,7.,300.,         103P     83
1.25,8.25,300.,3.06161699786838D-16,8.25,300.,-1.25,8.25,300.,       103P     84
-1.25,7.,3.14159265358979,7.85398163397448,0.,0.,0.;                 103P     85
126,1,1,0,0,1,0,-0.75,-0.75,1.25,1.25,1.,1.,300.,5.,-10.,300.,       105P     86
5.,10.,-0.75,1.25,0.,0.,0.;                                          105P     87
126,1,1,0,0,1,0,0.,0.,1.5,1.5,1.,1.,300.,5.,10.,315.,5.,10.,0.,      107P     88
1.5,0.,0.,0.;                                                        107P     89
126,1,1,0,0,1,0,-0.75,-0.75,-0.25,-0.25,1.,1.,315.,5.,10.,315.,      109P     90
5.,5.,-0.75,-0.25,0.,0.,0.;                                          109P     91
126,1,1,0,0,1,0,0.5,0.5,1.5,1.5,1.,1.,305.,5.,5.,315.,5.,5.,0.5,     111P     92
1.5,0.,0.,0.;                                                        111P     93
126,1,1,0,0,1,0,-1.5,-1.5,-0.5,-0.5,1.,1.,305.,5.,-5.,305.,5.,       113P     94
5.,-1.5,-0.5,0.,0.,0.;                                               113P     95
126,1,1,0,0,1,0,0.5,0.5,1.5,1.5,1.,1.,305.,5.,-5.,315.,5.,-5.,       115P     96
0.5,1.5,0.,0.,0.;                                                    115P     97
126,1,1,0,0,1,0,0.,0.,0.5,0.5,1.,1.,315.,5.,-5.,315.,5.,-10.,0.,     117P     98
0.5,0.,0.,0.;                                                        117P     99
126,1,1,0,0,1,0,0.,0.,1.5,1.5,1.,1.,300.,5.,-10.,315.,5.,-10.,       119P    100
0.,1.5,0.,0.,0.;                                                     119P    101
126,1,1,0,0,1,0,0.,0.,1.,1.,1.,1.,305.,-5.,-5.,305.,5.,-5.,0.,       121P    102
1.,0.,0.,0.;                                                         121P    103
126,1,1,0,0,1,0,0.5,0.5,1.5,1.5,1.,1.,305.,-5.,-5.,315.,-5.,-5.,     123P    104
0.5,1.5,0.,0.,0.;                                                    123P    105
126,1,1,0,0,1,0,-0.75,-0.75,0.25,0.25,1.,1.,315.,-5.,-5.,315.,       125P    106
5.,-5.,-0.75,0.25,0.,0.,0.;                                          125P    107
126,1,1,0,0,1,0,-0.75,-0.75,0.25,0.25,1.,1.,315.,5.,-10.,315.,       127P    108
-5.,-10.,-0.75,0.25,0.,0.,0.;                                        127P    109
126,1,1,0,0,1,0,0.,0.,1.5,1.5,1.,1.,300.,-5.,-10.,315.,-5.,-10.,     129P    110
0.,1.5,0.,0.,0.;                                                     129P    111
126,1,1,0,0,1,0,0.,0.,1.,1.,1.,1.,300.,5.,-10.,300.,-5.,-10.,0.,     131P    112
1.,0.,0.,0.;                                                         131P    113
126,1,1,0,0,1,0,0.,0.,2.,2.,1.,1.,300.,-5.,-10.,300.,-5.,10.,0.,     133P    114
2.,0.,0.,0.;                                                         133P    115
126,1,1,0,0,1,0,0.,0.,1.,1.,1.,1.,300.,-5.,10.,300.,5.,10.,0.,       135P    116
1.,0.,0.,0.;                                                         135P    117
126,1,1,0,0,1,0,-0.75,-0.75,-0.25,-0.25,1.,1.,315.,-5.,-10.,         137P    118
315.,-5.,-5.,-0.75,-0.25,0.,0.,0.;                                   137P    119
126,1,1,0,0,1,0,0.,0.,1.,1.,1.,1.,305.,5.,5.,305.,-5.,5.,0.,1.,      139P    120
0.,0.,0.;                                                            139P    121
126,1,1,0,0,1,0,-0.75,-0.75,0.25,0.25,1.,1.,315.,5.,5.,315.,-5.,     141P    122
5.,-0.75,0.25,0.,0.,0.;                                              141P    123
126,1,1,0,0,1,0,0.5,0.5,1.5,1.5,1.,1.,305.,-5.,5.,315.,-5.,5.,       143P    124
0.5,1.5,0.,0.,0.;                                                    143P    125
126,1,1,0,0,1,0,-0.75,-0.75,0.25,0.25,1.,1.,315.,-5.,10.,315.,       145P    126
5.,10.,-0.75,0.25,0.,0.,0.;                                          145P    127
126,1,1,0,0,1,0,0.,0.,1.5,1.5,1.,1.,300.,-5.,10.,315.,-5.,10.,       147P    128
0.,1.5,0.,0.,0.;                                                     147P    129
126,1,1,0,0,1,0,0.,0.,0.5,0.5,1.,1.,315.,-5.,5.,315.,-5.,10.,0.,     149P    130
0.5,0.,0.,0.;                                                        149P    131
126,1,1,0,0,1,0,-1.5,-1.5,-0.5,-0.5,1.,1.,305.,-5.,5.,305.,-5.,      151P    132
-5.,-1.5,-0.5,0.,0.,0.;                                              151P    133
126,1,1,0,0,1,0,-0.25,-0.25,0.75,0.75,1.,1.,34.5,-5.,5.,34.5,        153P    134
-5.,-5.,-0.25,0.75,0.,0.,0.;                                         153P    135
126,1,1,0,0,1,0,-0.25,-0.25,0.75,0.75,1.,1.,34.5,5.,5.,34.5,-5.,     155P    136
5.,-0.25,0.75,0.,0.,0.;                                              155P    137
126,1,1,0,0,1,0,-0.25,-0.25,0.75,0.75,1.,1.,34.5,5.,-5.,34.5,5.,     157P    138
5.,-0.25,0.75,0.,0.,0.;                                              157P    139
126,1,1,0,0,1,0,-0.25,-0.25,0.75,0.75,1.,1.,34.5,-5.,-5.,34.5,       159P    140
5.,-5.,-0.25,0.75,0.,0.,0.;                                          159P    141
126,1,1,0,0,1,0,3.45,3.45,20.,20.,1.,1.,34.5,5.,-5.,200.,5.,-5.,     161P    142
3.45,20.,0.,0.,0.;                                                   161P    143
126,1,1,0,0,1,0,-0.75,-0.75,0.25,0.25,1.,1.,200.,5.,-5.,200.,        163P    144
-5.,-5.,-0.75,0.25,0.,0.,0.;                                         163P    145
126,1,1,0,0,1,0,3.45,3.45,20.,20.,1.,1.,34.5,-5.,-5.,200.,-5.,       165P    146
-5.,3.45,20.,0.,0.,0.;                                               165P    147
126,1,1,0,0,1,0,3.45,3.45,20.,20.,1.,1.,34.5,5.,5.,200.,5.,5.,       167P    148
3.45,20.,0.,0.,0.;                                                   167P    149
126,1,1,0,0,1,0,-0.25,-0.25,0.75,0.75,1.,1.,200.,5.,-5.,200.,5.,     169P    150
5.,-0.25,0.75,0.,0.,0.;                                              169P    151
126,19,3,0,0,1,0,0.,0.,0.,0.,0.0456171553115359,                     171P    152
0.0456171553115359,0.0978368334818911,0.0978368334818911,            171P    153
0.151742130936256,0.151742130936256,0.217738094561987,               171P    154
0.217738094561987,0.294804270976917,0.294804270976917,               171P    155
0.368966404301423,0.368966404301423,0.425339640162477,               171P    156
0.425339640162477,0.445544154075241,0.445544154075241,               171P    157
0.463213655507045,0.463213655507045,0.463213655507045,               171P    158
0.463213655507045,1.,1.,1.,1.,1.,1.,1.,1.,1.,1.,1.,1.,1.,1.,1.,      171P    159
1.,1.,1.,1.,1.,195.437797625797,5.,9.71445146546768D-16,             171P    160
195.437797625797,5.,-0.152057184371785,195.482064304174,5.,          171P    161
-0.32907486406765,195.629475661392,5.,-0.619980275278346,            171P    162
195.76675277552,5.,-0.777413786794194,196.046610532582,5.,           171P    163
-0.993789942659321,196.239443117414,5.,-1.09026839478939,            171P    164
196.6195438304,5.,-1.21380078943798,196.881033969015,5.,-1.25,       171P    165
197.35790776915,5.,-1.25,197.662439974363,5.,-1.20217464329929,      171P    166
198.144901034638,5.,-1.05608407225605,198.415252469922,5.,           171P    167
-0.933975703387063,198.775144854437,5.,-0.68942498041565,            171P    168
198.943060113665,5.,-0.538920717148119,199.078536528968,5.,          171P    169
-0.32257982254196,199.11331561191,5.,-0.249627965067662,             171P    170
199.149709105134,5.,-0.128740631529251,199.1605458271,5.,            171P    171
-0.0588983381060147,199.1605458271,5.,9.4542429440736D-16,0.,        171P    172
0.463213655507045,0.,0.,0.;                                          171P    173
126,19,3,0,0,1,0,0.463213655507045,0.463213655507045,                173P    174
0.463213655507045,0.463213655507045,0.48088315693885,                173P    175
0.48088315693885,0.501087670851613,0.501087670851613,                173P    176
0.557460906712668,0.557460906712668,0.631623040037174,               173P    177
0.631623040037174,0.708689216452104,0.708689216452104,               173P    178
0.779357663186383,0.779357663186383,0.836197186281873,               173P    179
0.836197186281873,0.88399882039591,0.88399882039591,                 173P    180
0.9264090072502,0.9264090072502,0.9264090072502,0.9264090072502,     173P    181
1.,1.,1.,1.,1.,1.,1.,1.,1.,1.,1.,1.,1.,1.,1.,1.,1.,1.,1.,1.,         173P    182
199.1605458271,5.,9.4542429440736D-16,199.1605458271,5.,             173P    183
0.0588983381060164,199.149709105134,5.,0.128740631529253,            173P    184
199.11331561191,5.,0.249627965067663,199.078536528968,5.,            173P    185
0.322579822541961,198.943060113665,5.,0.538920717148121,             173P    186
198.775144854437,5.,0.689424980415652,198.415252469922,5.,           173P    187
0.933975703387065,198.144901034638,5.,1.05608407225605,              173P    188
197.662439974363,5.,1.20217464329929,197.35790776915,5.,1.25,        173P    189
196.865459025319,5.,1.25,196.585837541655,5.,1.20857180073122,       173P    190
196.185146293763,5.,1.06681812087512,195.985795904154,5.,            173P    191
0.957496922865832,195.722378588194,5.,0.728858674610128,             173P    192
195.603760657431,5.,0.578892924903734,195.476112450977,5.,           173P    193
0.306624535514777,195.437797625797,5.,0.141367289514299,             173P    194
195.437797625797,5.,7.28583859910259D-16,0.463213655507045,          173P    195
0.9264090072502,0.,0.,0.;                                            173P    196
126,19,3,0,0,1,0,0.,0.,0.,0.,0.0424101868542901,                     175P    197
0.0424101868542901,0.0902118209683277,0.0902118209683277,            175P    198
0.147051344063815,0.147051344063815,0.217719790798087,               175P    199
0.217719790798087,0.294785967213007,0.294785967213007,               175P    200
0.368948100537503,0.368948100537503,0.425321336398552,               175P    201
0.425321336398552,0.445525850311313,0.445525850311313,               175P    202
0.463195351743122,0.463195351743122,0.463195351743122,               175P    203
0.463195351743122,1.,1.,1.,1.,1.,1.,1.,1.,1.,1.,1.,1.,1.,1.,1.,      175P    204
1.,1.,1.,1.,1.,195.437797625796,-5.,-1.54390389361936D-15,           175P    205
195.437797625796,-5.,0.141367289514299,195.476112450977,-5.,         175P    206
0.30662453551478,195.60376065743,-5.,0.578892924903741,              175P    207
195.722378588194,-5.,0.728858674610136,195.985795904153,-5.,         175P    208
0.957496922865837,196.185146293762,-5.,1.06681812087513,             175P    209
196.585837541655,-5.,1.20857180073122,196.865459025319,-5.,1.25,     175P    210
197.35790776915,-5.,1.25,197.662439974363,-5.,1.2021746432993,       175P    211
198.144901034638,-5.,1.05608407225606,198.415252469921,-5.,          175P    212
0.933975703387086,198.775144854437,-5.,0.689424980415679,            175P    213
198.943060113664,-5.,0.53892071714815,199.078536528967,-5.,          175P    214
0.322579822542005,199.113315611909,-5.,0.249627965067704,            175P    215
199.149709105134,-5.,0.128740631529286,199.160545827099,-5.,         175P    216
0.05889833810603,199.160545827099,-5.,-9.80118763926896D-16,0.,      175P    217
0.463195351743122,0.,0.,0.;                                          175P    218
126,19,3,0,0,1,0,0.463195351743122,0.463195351743122,                177P    219
0.463195351743122,0.463195351743122,0.480864853174932,               177P    220
0.480864853174932,0.501069367087693,0.501069367087693,               177P    221
0.557442602948742,0.557442602948742,0.631604736273238,               177P    222
0.631604736273238,0.708670912688158,0.708670912688158,               177P    223
0.77933935942243,0.77933935942243,0.836178882517917,                 177P    224
0.836178882517917,0.883980516631955,0.883980516631955,               177P    225
0.926390703486245,0.926390703486245,0.926390703486245,               177P    226
0.926390703486245,1.,1.,1.,1.,1.,1.,1.,1.,1.,1.,1.,1.,1.,1.,1.,      177P    227
1.,1.,1.,1.,1.,199.160545827099,-5.,-9.80118763926896D-16,           177P    228
199.160545827099,-5.,-0.0588983381060317,199.149709105134,-5.,       177P    229
-0.128740631529287,199.113315611909,-5.,-0.249627965067706,          177P    230
199.078536528967,-5.,-0.322579822542007,198.943060113664,-5.,        177P    231
-0.538920717148152,198.775144854437,-5.,-0.68942498041568,           177P    232
198.415252469921,-5.,-0.933975703387088,198.144901034638,-5.,        177P    233
-1.05608407225606,197.662439974363,-5.,-1.2021746432993,             177P    234
197.35790776915,-5.,-1.25,196.865459025319,-5.,-1.25,                177P    235
196.585837541655,-5.,-1.20857180073123,196.185146293762,-5.,         177P    236
-1.06681812087513,195.985795904153,-5.,-0.957496922865838,           177P    237
195.722378588194,-5.,-0.728858674610137,195.60376065743,-5.,         177P    238
-0.578892924903742,195.476112450977,-5.,-0.306624535514781,          177P    239
195.437797625796,-5.,-0.141367289514301,195.437797625796,-5.,        177P    240
-5.20417042793042D-16,0.463195351743122,0.926390703486245,0.,0.,     177P    241
0.;                                                                  177P    242
126,4,2,0,0,0,0,-2.62511751274283,-2.62511751274283,                 179P    243
-2.62511751274283,-1.57079632679489,-1.57079632679489,               179P    244
-0.51647514084679,-0.51647514084679,-0.51647514084679,1.,            179P    245
0.864239005433715,1.,0.864239005433715,1.,199.160545827099,          179P    246
-5.00000000000001,-6.79586418576974D-16,196.25,-3.3471277011649,     179P    247
-4.04327886137188D-16,196.25,-3.16136006262017D-13,                  179P    248
1.5308084989185D-16,196.25,3.34712770116477,                         179P    249
7.10489585920972D-16,199.1605458271,4.99999999999998,                179P    250
9.85748118360759D-16,-2.62511751274283,-0.51647514084679,0.,0.,      179P    251
0.;                                                                  179P    252
126,1,1,0,0,1,0,3.45,3.45,20.,20.,1.,1.,34.5,-5.,5.,200.,-5.,5.,     181P    253
3.45,20.,0.,0.,0.;                                                   181P    254
126,1,1,0,0,1,0,-0.75,-0.75,0.25,0.25,1.,1.,200.,-5.,5.,200.,5.,     183P    255
5.,-0.75,0.25,0.,0.,0.;                                              183P    256
126,1,1,0,0,1,0,-0.25,-0.25,0.75,0.75,1.,1.,200.,-5.,5.,200.,        185P    257
-5.,-5.,-0.25,0.75,0.,0.,0.;                                         185P    258
128,8,4,2,2,1,0,0,1,0,-3.14159265358979,-3.14159265358979,           187P    259
-3.14159265358979,-1.5707963267949,-1.5707963267949,0.,0.,           187P    260
1.5707963267949,1.5707963267949,3.14159265358979,                    187P    261
3.14159265358979,3.14159265358979,-3.14159265358979,                 187P    262
-3.14159265358979,-3.14159265358979,-1.5707963267949,                187P    263
-1.5707963267949,0.,0.,0.,1.,0.707106781186549,1.,                   187P    264
0.707106781186549,1.,0.707106781186549,1.,0.707106781186549,1.,      187P    265
0.707106781186548,0.500000000000001,0.707106781186548,               187P    266
0.500000000000001,0.707106781186548,0.500000000000001,               187P    267
0.707106781186548,0.500000000000001,0.707106781186548,1.,            187P    268
0.707106781186549,1.,0.707106781186549,1.,0.707106781186549,1.,      187P    269
0.707106781186549,1.,0.707106781186548,0.500000000000001,            187P    270
0.707106781186548,0.500000000000001,0.707106781186548,               187P    271
0.500000000000001,0.707106781186548,0.500000000000001,               187P    272
0.707106781186548,1.,0.707106781186549,1.,0.707106781186549,1.,      187P    273
0.707106781186549,1.,0.707106781186549,1.,300.,                      187P    274
-1.53080849893419D-16,5.75,300.,-1.25,5.75,300.,-1.25,7.,300.,       187P    275
-1.25,8.25,300.,0.,8.25,300.,1.25,8.25,300.,1.25,7.,300.,1.25,       187P    276
5.75,300.,1.53080849893419D-16,5.75,294.25,                          187P    277
-1.53080849893419D-16,5.75,294.25,-1.25,5.75,293.,-1.25,7.,          187P    278
291.75,-1.25,8.25,291.75,0.,8.25,291.75,1.25,8.25,293.,1.25,7.,      187P    279
294.25,1.25,5.75,294.25,1.53080849893419D-16,5.75,294.25,            187P    280
-1.53080849893419D-16,0.,294.25,-1.25,0.,293.,-1.25,0.,291.75,       187P    281
-1.25,0.,291.75,0.,0.,291.75,1.25,0.,293.,1.25,0.,294.25,1.25,       187P    282
0.,294.25,1.53080849893419D-16,0.,294.25,-1.53080849893419D-16,      187P    283
-5.75,294.25,-1.25,-5.75,293.,-1.25,-7.,291.75,-1.25,-8.25,          187P    284
291.75,0.,-8.25,291.75,1.25,-8.25,293.,1.25,-7.,294.25,1.25,         187P    285
-5.75,294.25,1.53080849893419D-16,-5.75,300.,                        187P    286
-1.53080849893419D-16,-5.75,300.,-1.25,-5.75,300.,-1.25,-7.,         187P    287
300.,-1.25,-8.25,300.,0.,-8.25,300.,1.25,-8.25,300.,1.25,-7.,        187P    288
300.,1.25,-5.75,300.,1.53080849893419D-16,-5.75,                     187P    289
-3.14159265358979,3.14159265358979,-3.14159265358979,0.;             187P    290
128,1,1,1,1,0,0,1,0,0,-0.501,-0.501,1.501,1.501,29.999,29.999,       189P    291
31.501,31.501,1.,1.,1.,1.,299.99,5.,-10.01,299.99,5.,10.01,          189P    292
315.01,5.,-10.01,315.01,5.,10.01,-0.501,1.501,29.999,31.501;         189P    293
128,1,1,1,1,0,0,1,0,0,-0.001,-0.001,1.001,1.001,0.499,0.499,         191P    294
1.501,1.501,1.,1.,1.,1.,304.99,5.01,-5.,304.99,-5.01,-5.,315.01,     191P    295
5.01,-5.,315.01,-5.01,-5.,-0.001,1.001,0.499,1.501;                  191P    296
128,1,1,1,1,0,0,1,0,0,-0.001,-0.001,1.001,1.001,-0.001,-0.001,       193P    297
1.501,1.501,1.,1.,1.,1.,299.99,-5.01,-10.,299.99,5.01,-10.,          193P    298
315.01,-5.01,-10.,315.01,5.01,-10.,-0.001,1.001,-0.001,1.501;        193P    299
128,1,1,1,1,0,0,1,0,0,-0.501,-0.501,0.501,0.501,-0.251,-0.251,       195P    300
1.751,1.751,1.,1.,1.,1.,300.,5.01,-10.01,300.,-5.01,-10.01,300.,     195P    301
5.01,10.01,300.,-5.01,10.01,-0.501,0.501,-0.251,1.751;               195P    302
128,1,1,1,1,0,0,1,0,0,0.499,0.499,1.001,1.001,-0.501,-0.501,         197P    303
0.501,0.501,1.,1.,1.,1.,315.,-5.01,-4.99,315.,-5.01,-10.01,315.,     197P    304
5.01,-4.99,315.,5.01,-10.01,0.499,1.001,-0.501,0.501;                197P    305
128,1,1,1,1,0,0,1,0,0,-0.001,-0.001,1.001,1.001,0.499,0.499,         199P    306
1.501,1.501,1.,1.,1.,1.,304.99,-5.01,5.,304.99,5.01,5.,315.01,       199P    307
-5.01,5.,315.01,5.01,5.,-0.001,1.001,0.499,1.501;                    199P    308
128,1,1,1,1,0,0,1,0,0,-0.001,-0.001,1.001,1.001,-0.001,-0.001,       201P    309
1.501,1.501,1.,1.,1.,1.,299.99,5.01,10.,299.99,-5.01,10.,315.01,     201P    310
5.01,10.,315.01,-5.01,10.,-0.001,1.001,-0.001,1.501;                 201P    311
128,1,1,1,1,0,0,1,0,0,-1.001,-1.001,-0.499,-0.499,-0.501,-0.501,     203P    312
0.501,0.501,1.,1.,1.,1.,315.,-5.01,10.01,315.,-5.01,4.99,315.,       203P    313
5.01,10.01,315.,5.01,4.99,-1.001,-0.499,-0.501,0.501;                203P    314
128,1,1,1,1,0,0,1,0,0,-0.501,-0.501,0.501,0.501,-0.501,-0.501,       205P    315
0.501,0.501,1.,1.,1.,1.,305.,-5.01,5.01,305.,-5.01,-5.01,305.,       205P    316
5.01,5.01,305.,5.01,-5.01,-0.501,0.501,-0.501,0.501;                 205P    317
128,1,1,1,1,0,0,1,0,0,-0.501,-0.501,1.501,1.501,29.999,29.999,       207P    318
31.501,31.501,1.,1.,1.,1.,299.99,-5.,10.01,299.99,-5.,-10.01,        207P    319
315.01,-5.,10.01,315.01,-5.,-10.01,-0.501,1.501,29.999,31.501;       207P    320
128,1,1,1,1,0,0,1,0,0,-0.501,-0.501,0.501,0.501,-0.501,-0.501,       209P    321
0.501,0.501,1.,1.,1.,1.,34.5,-5.01,-5.01,34.5,-5.01,5.01,34.5,       209P    322
5.01,-5.01,34.5,5.01,5.01,-0.501,0.501,-0.501,0.501;                 209P    323
128,1,1,1,1,0,0,1,0,0,-0.001,-0.001,1.001,1.001,3.449,3.449,         211P    324
20.001,20.001,1.,1.,1.,1.,34.49,-5.01,-5.,34.49,5.01,-5.,200.01,     211P    325
-5.01,-5.,200.01,5.01,-5.,-0.001,1.001,3.449,20.001;                 211P    326
128,1,1,1,1,0,0,1,0,0,-0.001,-0.001,1.001,1.001,3.449,3.449,         213P    327
20.001,20.001,1.,1.,1.,1.,34.49,5.,-5.01,34.49,5.,5.01,200.01,       213P    328
5.,-5.01,200.01,5.,5.01,-0.001,1.001,3.449,20.001;                   213P    329
128,8,4,2,2,1,0,0,1,0,-3.14159265358979,-3.14159265358979,           215P    330
-3.14159265358979,-1.5707963267949,-1.5707963267949,0.,0.,           215P    331
1.5707963267949,1.5707963267949,3.14159265358979,                    215P    332
3.14159265358979,3.14159265358979,-2.62511751274283,                 215P    333
-2.62511751274283,-2.62511751274283,-1.57079632679489,               215P    334
-1.57079632679489,-0.51647514084679,-0.51647514084679,               215P    335
-0.51647514084679,1.,0.707106781186548,1.,0.707106781186546,1.,      215P    336
0.707106781186549,1.,0.707106781186546,1.,0.864239005433715,         215P    337
0.611109261308098,0.864239005433715,0.611109261308096,               215P    338
0.864239005433715,0.611109261308098,0.864239005433715,               215P    339
0.611109261308096,0.864239005433715,1.,0.707106781186548,1.,         215P    340
0.707106781186546,1.,0.707106781186549,1.,0.707106781186546,1.,      215P    341
0.864239005433715,0.611109261308098,0.864239005433715,               215P    342
0.611109261308096,0.864239005433715,0.611109261308098,               215P    343
0.864239005433715,0.611109261308096,0.864239005433715,1.,            215P    344
0.707106781186548,1.,0.707106781186546,1.,0.707106781186549,1.,      215P    345
0.707106781186546,1.,199.160545827099,-5.00000000000001,             215P    346
-6.79586418576974D-16,199.160545827099,-5.00000000000001,1.25,       215P    347
198.543273180817,-6.08695652173908,1.25,197.926000534534,            215P    348
-7.17391304347815,1.25,197.926000534534,-7.17391304347815,           215P    349
-1.19469651563075D-15,197.926000534534,-7.17391304347815,-1.25,      215P    350
198.543273180817,-6.08695652173908,-1.25,199.160545827099,-5.,       215P    351
-1.25,199.160545827099,-5.00000000000001,-9.85748118363812D-16,      215P    352
196.25,-3.3471277011649,-4.04327886137188D-16,196.25,                215P    353
-3.3471277011649,1.25,195.,-4.0747641579398,1.25,193.75,             215P    354
-4.80240061471471,1.25,193.75,-4.80240061471471,                     215P    355
-7.99760360391052D-16,193.75,-4.80240061471471,-1.25,195.,           215P    356
-4.0747641579398,-1.25,196.25,-3.3471277011649,-1.25,196.25,         215P    357
-3.3471277011649,-7.10489585924026D-16,196.25,                       215P    358
-3.16136006262017D-13,1.5308084989185D-16,196.25,                    215P    359
-3.16344173079135D-13,1.25,195.,-3.16344173079135D-13,1.25,          215P    360
193.75,-3.16344173079135D-13,1.25,193.75,-3.16136006262017D-13,      215P    361
-1.56255509727085D-27,193.75,-3.159278394449D-13,-1.25,195.,         215P    362
-3.159278394449D-13,-1.25,196.25,-3.159278394449D-13,-1.25,          215P    363
196.25,-3.16136006262017D-13,-1.53080849894989D-16,196.25,           215P    364
3.34712770116477,7.10489585920972D-16,196.25,3.34712770116477,       215P    365
1.25,195.,4.07476415793979,1.25,193.75,4.80240061471481,1.25,        215P    366
193.75,4.80240061471481,7.99760360388049D-16,193.75,                 215P    367
4.80240061471481,-1.25,195.,4.07476415793979,-1.25,196.25,           215P    368
3.34712770116477,-1.25,196.25,3.34712770116477,                      215P    369
4.04327886134134D-16,199.1605458271,4.99999999999998,                215P    370
9.85748118360759D-16,199.1605458271,4.99999999999998,1.25,           215P    371
198.543273180817,6.08695652173917,1.25,197.926000534535,             215P    372
7.17391304347835,1.25,197.926000534535,7.17391304347835,             215P    373
1.19469651562774D-15,197.926000534535,7.17391304347835,-1.25,        215P    374
198.543273180817,6.08695652173917,-1.25,199.1605458271,              215P    375
4.99999999999998,-1.25,199.1605458271,4.99999999999998,              215P    376
6.7958641857392D-16,-3.14159265358979,3.14159265358979,              215P    377
-2.62511751274283,-0.51647514084679;                                 215P    378
128,1,1,1,1,0,0,1,0,0,-0.001,-0.001,1.001,1.001,3.449,3.449,         217P    379
20.001,20.001,1.,1.,1.,1.,34.49,5.01,5.,34.49,-5.01,5.,200.01,       217P    380
5.01,5.,200.01,-5.01,5.,-0.001,1.001,3.449,20.001;                   217P    381
128,1,1,1,1,0,0,1,0,0,-0.001,-0.001,1.001,1.001,3.449,3.449,         219P    382
20.001,20.001,1.,1.,1.,1.,34.49,-5.,5.01,34.49,-5.,-5.01,200.01,     219P    383
-5.,5.01,200.01,-5.,-5.01,-0.001,1.001,3.449,20.001;                 219P    384
128,1,1,1,1,0,0,1,0,0,-0.501,-0.501,0.501,0.501,-0.501,-0.501,       221P    385
0.501,0.501,1.,1.,1.,1.,200.,-5.01,5.01,200.,-5.01,-5.01,200.,       221P    386
5.01,5.01,200.,5.01,-5.01,-0.501,0.501,-0.501,0.501;                 221P    387
502,20,300.,-1.25,-7.,300.,1.53080849893419D-16,-5.75,300.,          223P    388
1.53080849893419D-16,5.75,300.,-1.25,7.,300.,5.,-10.,300.,5.,        223P    389
10.,315.,5.,10.,315.,5.,5.,305.,5.,5.,305.,5.,-5.,315.,5.,-5.,       223P    390
315.,5.,-10.,305.,-5.,-5.,315.,-5.,-5.,315.,-5.,-10.,300.,-5.,       223P    391
-10.,300.,-5.,10.,305.,-5.,5.,315.,-5.,5.,315.,-5.,10.;              223P    392
502,12,34.5,-5.,5.,34.5,-5.,-5.,34.5,5.,5.,34.5,5.,-5.,200.,5.,      225P    393
-5.,200.,-5.,-5.,200.,5.,5.,195.437797625797,5.,                     225P    394
9.71445146546768D-16,199.1605458271,4.99999999999998,                225P    395
9.85748118360759D-16,195.437797625796,-5.,-6.41847686111419D-16,     225P    396
199.160545827099,-5.00000000000001,-6.79586418576974D-16,200.,       225P    397
-5.,5.;                                                              225P    398
504,29,95,223,1,223,2,97,223,2,223,1,99,223,2,223,3,101,223,4,       227P    399
223,3,103,223,3,223,4,105,223,5,223,6,107,223,6,223,7,109,223,7,     227P    400
223,8,111,223,9,223,8,113,223,10,223,9,115,223,10,223,11,117,        227P    401
223,11,223,12,119,223,5,223,12,121,223,13,223,10,123,223,13,223,     227P    402
14,125,223,14,223,11,127,223,12,223,15,129,223,16,223,15,131,        227P    403
223,5,223,16,133,223,16,223,17,135,223,17,223,6,137,223,15,223,      227P    404
14,139,223,9,223,18,141,223,8,223,19,143,223,18,223,19,145,223,      227P    405
20,223,7,147,223,17,223,20,149,223,19,223,20,151,223,18,223,13;      227P    406
504,17,153,225,1,225,2,155,225,3,225,1,157,225,4,225,3,159,225,      229P    407
2,225,4,161,225,4,225,5,163,225,5,225,6,165,225,2,225,6,167,225,     229P    408
3,225,7,169,225,5,225,7,171,225,8,225,9,173,225,9,225,8,175,225,     229P    409
10,225,11,177,225,11,225,10,179,225,11,225,9,181,225,1,225,12,       229P    410
183,225,12,225,7,185,225,12,225,6;                                   229P    411
406,1,5HBody3;                                                       231P    412
406,1,17HEnd Effector v5:1;                                          233P    413
406,1,5HBody1;                                                       235P    414
314,18.8235294117647,23.1372549019608,58.8235294117647,28HPaint      237P    415
- Enamel Glossy (Blue);                                              237P    416
314,62.7450980392157,62.7450980392157,62.7450980392157,13HSteel      239P    417
- Satin;                                                             239P    418
S      1G      3D    240P    418                                        T      1
