                                                                        S      1
,,9HZ Link v4,6HZ Link,7Hunknown,7Hunknown,32,38,7,99,15,,1.,2,2HMM,1,  G      1
0.08,15H20230206.163311,0.01,10000.,7Hunknown,7Hunknown,11,0,15H20230206G      2
.102837;                                                                G      3
     186       1                                                00000000D      1
     186            -179       1       0                               0D      2
     514       2                                                00010000D      3
     514                       2       1                               0D      4
     510       4                                                00010000D      5
     510            -179       1       1                               0D      6
     510       5                                                00010000D      7
     510            -179       1       1                               0D      8
     510       6                                                00010000D      9
     510            -179       1       1                               0D     10
     510       7                                                00010000D     11
     510            -179       1       1                               0D     12
     510       8                                                00010000D     13
     510            -179       1       1                               0D     14
     510       9                                                00010000D     15
     510            -179       1       1                               0D     16
     510      10                                                00010000D     17
     510            -179       1       1                               0D     18
     510      11                                                00010000D     19
     510            -179       1       1                               0D     20
     510      12                                                00010000D     21
     510            -179       1       1                               0D     22
     510      13                                                00010000D     23
     510            -179       1       1                               0D     24
     510      14                                                00010000D     25
     510            -179       1       1                               0D     26
     510      15                                                00010000D     27
     510            -179       1       1                               0D     28
     510      16                                                00010000D     29
     510            -179       1       1                               0D     30
     510      17                                                00010000D     31
     510            -179       1       1                               0D     32
     510      18                                                00010000D     33
     510            -179       1       1                               0D     34
     508      19                                                00010000D     35
     508                       1       1                               0D     36
     508      20                                                00010000D     37
     508                       1       1                               0D     38
     508      21                                                00010000D     39
     508                       1       1                               0D     40
     508      22                                                00010000D     41
     508                       1       1                               0D     42
     508      23                                                00010000D     43
     508                       1       1                               0D     44
     508      24                                                00010000D     45
     508                       1       1                               0D     46
     508      25                                                00010000D     47
     508                       1       1                               0D     48
     508      26                                                00010000D     49
     508                       1       1                               0D     50
     508      27                                                00010000D     51
     508                       1       1                               0D     52
     508      28                                                00010000D     53
     508                       1       1                               0D     54
     508      29                                                00010000D     55
     508                       1       1                               0D     56
     508      30                                                00010000D     57
     508                       1       1                               0D     58
     508      31                                                00010000D     59
     508                       1       1                               0D     60
     508      32                                                00010000D     61
     508                       1       1                               0D     62
     508      33                                                00010000D     63
     508                       1       1                               0D     64
     508      34                                                00010000D     65
     508                       1       1                               0D     66
     508      35                                                00010000D     67
     508                       1       1                               0D     68
     508      36                                                00010000D     69
     508                       1       1                               0D     70
     126      37                                                00010000D     71
     126       0               2       0                               0D     72
     126      39                                                00010000D     73
     126       0               2       0                               0D     74
     126      41                                                00010000D     75
     126       0               2       0                               0D     76
     126      43                                                00010000D     77
     126       0               2       0                               0D     78
     126      45                                                00010000D     79
     126       0               2       0                               0D     80
     126      47                                                00010000D     81
     126       0               2       0                               0D     82
     126      49                                                00010000D     83
     126       0               2       0                               0D     84
     126      51                                                00010000D     85
     126       0               2       0                               0D     86
     126      53                                                00010000D     87
     126       0               2       0                               0D     88
     126      55                                                00010000D     89
     126       0               2       0                               0D     90
     126      57                                                00010000D     91
     126       0               2       0                               0D     92
     126      59                                                00010000D     93
     126       0               2       0                               0D     94
     126      61                                                00010000D     95
     126       0               2       0                               0D     96
     126      63                                                00010000D     97
     126       0               2       0                               0D     98
     126      65                                                00010000D     99
     126       0               2       0                               0D    100
     126      67                                                00010000D    101
     126       0               2       0                               0D    102
     126      69                                                00010000D    103
     126       0               2       0                               0D    104
     126      71                                                00010000D    105
     126       0               2       0                               0D    106
     126      73                                                00010000D    107
     126       0               2       0                               0D    108
     126      75                                                00010000D    109
     126       0               2       0                               0D    110
     126      77                                                00010000D    111
     126       0               2       0                               0D    112
     126      79                                                00010000D    113
     126       0               2       0                               0D    114
     126      81                                                00010000D    115
     126       0               2       0                               0D    116
     126      83                                                00010000D    117
     126       0               2       0                               0D    118
     126      85                                                00010000D    119
     126       0               2       0                               0D    120
     126      87                                                00010000D    121
     126       0               2       0                               0D    122
     126      89                                                00010000D    123
     126       0               2       0                               0D    124
     126      91                                                00010000D    125
     126       0               2       0                               0D    126
     126      93                                                00010000D    127
     126       0               2       0                               0D    128
     126      95                                                00010000D    129
     126       0               2       0                               0D    130
     126      97                                                00010000D    131
     126       0               2       0                               0D    132
     126      99                                                00010000D    133
     126       0               2       0                               0D    134
     126     101                                                00010000D    135
     126       0               2       0                               0D    136
     126     103                                                00010000D    137
     126       0               2       0                               0D    138
     126     105                                                00010000D    139
     126       0               2       0                               0D    140
     126     107                                                00010000D    141
     126       0               2       0                               0D    142
     128     109                                                00010000D    143
     128       0    -179       3       0                               0D    144
     128     112                                                00010000D    145
     128       0    -179       3       0                               0D    146
     128     115                                                00010000D    147
     128       0    -179       3       0                               0D    148
     128     118                                                00010000D    149
     128       0    -179       4       0                               0D    150
     128     122                                                00010000D    151
     128       0    -179       3       0                               0D    152
     128     125                                                00010000D    153
     128       0    -179       3       0                               0D    154
     128     128                                                00010000D    155
     128       0    -179       3       0                               0D    156
     128     131                                                00010000D    157
     128       0    -179       3       0                               0D    158
     128     134                                                00010000D    159
     128       0    -179       3       0                               0D    160
     128     137                                                00010000D    161
     128       0    -179       3       0                               0D    162
     128     140                                                00010000D    163
     128       0    -179       3       0                               0D    164
     128     143                                                00010000D    165
     128       0    -179       3       0                               0D    166
     128     146                                                00010000D    167
     128       0    -179       3       0                               0D    168
     128     149                                                00010000D    169
     128       0    -179       3       0                               0D    170
     128     152                                                00010000D    171
     128       0    -179       3       0                               0D    172
     502     155                                                00010000D    173
     502                       6       1                               0D    174
     504     161                                                00010001D    175
     504                      10       1                               0D    176
     406     171                                                00000000D    177
     406                       1      15                               0D    178
     314     172                                                00000200D    179
     314                       2       0                               0D    180
     314     174                                                00000200D    181
     314                       2       0                               0D    182
186,3,1,0,0,1,177;                                                     1P      1
514,15,5,1,7,1,9,1,11,1,13,1,15,1,17,1,19,1,21,1,23,1,25,1,27,1,       3P      2
29,1,31,1,33,1;                                                        3P      3
510,143,1,1,35;                                                        5P      4
510,145,1,1,37;                                                        7P      5
510,147,1,1,39;                                                        9P      6
510,149,1,1,41;                                                       11P      7
510,151,1,1,43;                                                       13P      8
510,153,2,1,45,47;                                                    15P      9
510,155,1,1,49;                                                       17P     10
510,157,2,1,51,53;                                                    19P     11
510,159,1,1,55;                                                       21P     12
510,161,2,1,57,59;                                                    23P     13
510,163,1,1,61;                                                       25P     14
510,165,1,1,63;                                                       27P     15
510,167,1,1,65;                                                       29P     16
510,169,1,1,67;                                                       31P     17
510,171,1,1,69;                                                       33P     18
508,4,0,175,1,1,0,0,175,2,1,0,0,175,3,1,0,0,175,4,1,0;                35P     19
508,4,0,175,5,0,0,0,175,6,0,0,0,175,7,0,0,0,175,8,1,0;                37P     20
508,4,0,175,9,0,0,0,175,8,0,0,0,175,10,0,0,0,175,11,1,0;              39P     21
508,4,0,175,12,0,0,0,175,11,0,0,0,175,13,0,0,0,175,14,1,0;            41P     22
508,4,0,175,15,0,0,0,175,14,0,0,0,175,16,0,0,0,175,6,1,0;             43P     23
508,4,0,175,17,0,0,0,175,18,0,0,0,175,19,0,0,0,175,20,0,0;            45P     24
508,4,0,175,21,1,0,0,175,22,1,0,0,175,23,1,0,0,175,24,1,0;            47P     25
508,4,0,175,18,1,0,0,175,25,1,0,0,175,26,0,0,0,175,27,0,0;            49P     26
508,4,0,175,19,1,0,0,175,27,1,0,0,175,28,0,0,0,175,29,0,0;            51P     27
508,4,0,175,12,1,0,0,175,15,1,0,0,175,5,1,0,0,175,9,1,0;              53P     28
508,4,0,175,20,1,0,0,175,29,1,0,0,175,30,0,0,0,175,31,0,0;            55P     29
508,4,0,175,17,1,0,0,175,31,1,0,0,175,32,0,0,0,175,25,0,0;            57P     30
508,4,0,175,13,1,0,0,175,10,1,0,0,175,7,1,0,0,175,16,1,0;             59P     31
508,4,0,175,32,1,0,0,175,30,1,0,0,175,28,1,0,0,175,26,1,0;            61P     32
508,4,0,175,33,0,0,0,175,21,0,0,0,175,34,0,0,0,175,2,0,0;             63P     33
508,4,0,175,34,1,0,0,175,24,0,0,0,175,35,0,0,0,175,3,0,0;             65P     34
508,4,0,175,35,1,0,0,175,23,0,0,0,175,36,0,0,0,175,4,0,0;             67P     35
508,4,0,175,36,1,0,0,175,22,0,0,0,175,33,1,0,0,175,1,0,0;             69P     36
126,1,1,0,0,1,0,-1.,-1.,0.,0.,1.,1.,5.,-87.5,-5.,5.,-87.5,5.,         71P     37
-1.,0.,0.,0.,0.;                                                      71P     38
126,1,1,0,0,1,0,-1.,-1.,0.,0.,1.,1.,5.,-87.5,5.,-5.,-87.5,5.,         73P     39
-1.,0.,0.,0.,0.;                                                      73P     40
126,1,1,0,0,1,0,-1.,-1.,0.,0.,1.,1.,-5.,-87.5,5.,-5.,-87.5,-5.,       75P     41
-1.,0.,0.,0.,0.;                                                      75P     42
126,1,1,0,0,1,0,-1.,-1.,0.,0.,1.,1.,-5.,-87.5,-5.,5.,-87.5,-5.,       77P     43
-1.,0.,0.,0.,0.;                                                      77P     44
126,1,1,0,0,1,0,-0.375,-0.375,0.625,0.625,1.,1.,7.5,152.5,5.,         79P     45
7.5,152.5,-5.,-0.375,0.625,0.,0.,0.;                                  79P     46
126,1,1,0,0,1,0,0.,0.,1.5,1.5,1.,1.,-7.5,152.5,5.,7.5,152.5,5.,       81P     47
0.,1.5,0.,0.,0.;                                                      81P     48
126,1,1,0,0,1,0,0.125,0.125,1.125,1.125,1.,1.,-7.5,152.5,-5.,         83P     49
-7.5,152.5,5.,0.125,1.125,0.,0.,0.;                                   83P     50
126,1,1,0,0,1,0,0.,0.,1.5,1.5,1.,1.,-7.5,152.5,-5.,7.5,152.5,         85P     51
-5.,0.,1.5,0.,0.,0.;                                                  85P     52
126,1,1,0,0,1,0,-1.125,-1.125,-0.125,-0.125,1.,1.,7.5,152.5,-5.,      87P     53
7.5,142.5,-5.,-1.125,-0.125,0.,0.,0.;                                 87P     54
126,1,1,0,0,1,0,0.125,0.125,1.125,1.125,1.,1.,-7.5,142.5,-5.,         89P     55
-7.5,152.5,-5.,0.125,1.125,0.,0.,0.;                                  89P     56
126,1,1,0,0,1,0,0.,0.,1.5,1.5,1.,1.,-7.5,142.5,-5.,7.5,142.5,         91P     57
-5.,0.,1.5,0.,0.,0.;                                                  91P     58
126,1,1,0,0,1,0,-1.125,-1.125,-0.125,-0.125,1.,1.,7.5,142.5,-5.,      93P     59
7.5,142.5,5.,-1.125,-0.125,0.,0.,0.;                                  93P     60
126,1,1,0,0,1,0,-0.625,-0.625,0.375,0.375,1.,1.,-7.5,142.5,5.,        95P     61
-7.5,142.5,-5.,-0.625,0.375,0.,0.,0.;                                 95P     62
126,1,1,0,0,1,0,0.,0.,1.5,1.5,1.,1.,-7.5,142.5,5.,7.5,142.5,5.,       97P     63
0.,1.5,0.,0.,0.;                                                      97P     64
126,1,1,0,0,1,0,-0.375,-0.375,0.625,0.625,1.,1.,7.5,142.5,5.,         99P     65
7.5,152.5,5.,-0.375,0.625,0.,0.,0.;                                   99P     66
126,1,1,0,0,1,0,-0.625,-0.625,0.375,0.375,1.,1.,-7.5,152.5,5.,       101P     67
-7.5,142.5,5.,-0.625,0.375,0.,0.,0.;                                 101P     68
126,1,1,0,0,1,0,0.,0.,1.5,1.5,1.,1.,-7.5,140.,-7.5,-7.5,140.,        103P     69
7.5,0.,1.5,0.,0.,0.;                                                 103P     70
126,1,1,0,0,1,0,0.,0.,1.5,1.5,1.,1.,7.5,140.,-7.5,-7.5,140.,         105P     71
-7.5,0.,1.5,0.,0.,0.;                                                105P     72
126,1,1,0,0,1,0,0.,0.,1.5,1.5,1.,1.,7.5,140.,7.5,7.5,140.,-7.5,      107P     73
0.,1.5,0.,0.,0.;                                                     107P     74
126,1,1,0,0,1,0,0.,0.,1.5,1.5,1.,1.,-7.5,140.,7.5,7.5,140.,7.5,      109P     75
0.,1.5,0.,0.,0.;                                                     109P     76
126,1,1,0,0,1,0,0.,0.,1.,1.,1.,1.,-5.,140.,5.,5.,140.,5.,0.,1.,      111P     77
0.,0.,0.;                                                            111P     78
126,1,1,0,0,1,0,0.,0.,1.,1.,1.,1.,5.,140.,5.,5.,140.,-5.,0.,1.,      113P     79
0.,0.,0.;                                                            113P     80
126,1,1,0,0,1,0,0.,0.,1.,1.,1.,1.,5.,140.,-5.,-5.,140.,-5.,0.,       115P     81
1.,0.,0.,0.;                                                         115P     82
126,1,1,0,0,1,0,0.,0.,1.,1.,1.,1.,-5.,140.,-5.,-5.,140.,5.,0.,       117P     83
1.,0.,0.,0.;                                                         117P     84
126,1,1,0,0,1,0,0.,0.,1.5,1.5,1.,1.,-7.5,140.,-7.5,-7.5,155.,        119P     85
-7.5,0.,1.5,0.,0.,0.;                                                119P     86
126,1,1,0,0,1,0,0.,0.,1.5,1.5,1.,1.,7.5,155.,-7.5,-7.5,155.,         121P     87
-7.5,0.,1.5,0.,0.,0.;                                                121P     88
126,1,1,0,0,1,0,0.,0.,1.5,1.5,1.,1.,7.5,140.,-7.5,7.5,155.,-7.5,     123P     89
0.,1.5,0.,0.,0.;                                                     123P     90
126,1,1,0,0,1,0,0.,0.,1.5,1.5,1.,1.,7.5,155.,7.5,7.5,155.,-7.5,      125P     91
0.,1.5,0.,0.,0.;                                                     125P     92
126,1,1,0,0,1,0,0.,0.,1.5,1.5,1.,1.,7.5,140.,7.5,7.5,155.,7.5,       127P     93
0.,1.5,0.,0.,0.;                                                     127P     94
126,1,1,0,0,1,0,0.,0.,1.5,1.5,1.,1.,-7.5,155.,7.5,7.5,155.,7.5,      129P     95
0.,1.5,0.,0.,0.;                                                     129P     96
126,1,1,0,0,1,0,0.,0.,1.5,1.5,1.,1.,-7.5,140.,7.5,-7.5,155.,7.5,     131P     97
0.,1.5,0.,0.,0.;                                                     131P     98
126,1,1,0,0,1,0,0.,0.,1.5,1.5,1.,1.,-7.5,155.,-7.5,-7.5,155.,        133P     99
7.5,0.,1.5,0.,0.,0.;                                                 133P    100
126,1,1,0,0,1,0,-14.,-14.,8.75,8.75,1.,1.,5.,140.,5.,5.,-87.5,       135P    101
5.,-14.,8.75,0.,0.,0.;                                               135P    102
126,1,1,0,0,1,0,-8.75,-8.75,14.,14.,1.,1.,-5.,-87.5,5.,-5.,140.,     137P    103
5.,-8.75,14.,0.,0.,0.;                                               137P    104
126,1,1,0,0,1,0,-8.75,-8.75,14.,14.,1.,1.,-5.,-87.5,-5.,-5.,         139P    105
140.,-5.,-8.75,14.,0.,0.,0.;                                         139P    106
126,1,1,0,0,1,0,-8.75,-8.75,14.,14.,1.,1.,5.,-87.5,-5.,5.,140.,      141P    107
-5.,-8.75,14.,0.,0.,0.;                                              141P    108
128,1,1,1,1,0,0,1,0,0,-0.501,-0.501,0.501,0.501,-0.501,-0.501,       143P    109
0.501,0.501,1.,1.,1.,1.,-5.01,-87.5,5.01,-5.01,-87.5,-5.01,5.01,     143P    110
-87.5,5.01,5.01,-87.5,-5.01,-0.501,0.501,-0.501,0.501;               143P    111
128,1,1,1,1,0,0,1,0,0,-0.001,-0.001,1.001,1.001,-0.001,-0.001,       145P    112
1.501,1.501,1.,1.,1.,1.,-7.51,152.5,5.01,-7.51,152.5,-5.01,7.51,     145P    113
152.5,5.01,7.51,152.5,-5.01,-0.001,1.001,-0.001,1.501;               145P    114
128,1,1,1,1,0,0,1,0,0,-0.001,-0.001,1.001,1.001,-0.001,-0.001,       147P    115
1.501,1.501,1.,1.,1.,1.,-7.51,152.51,-5.,-7.51,142.49,-5.,7.51,      147P    116
152.51,-5.,7.51,142.49,-5.,-0.001,1.001,-0.001,1.501;                147P    117
128,1,1,1,1,0,0,1,0,0,-0.00100000000000006,-0.00100000000000006,     149P    118
1.001,1.001,-0.001,-0.001,1.501,1.501,1.,1.,1.,1.,-7.51,142.5,       149P    119
-5.01,-7.51,142.5,5.01,7.51,142.5,-5.01,7.51,142.5,5.01,             149P    120
-0.00100000000000006,1.001,-0.001,1.501;                             149P    121
128,1,1,1,1,0,0,1,0,0,-0.001,-0.001,1.001,1.001,-0.001,-0.001,       151P    122
1.501,1.501,1.,1.,1.,1.,-7.51,142.49,5.,-7.51,152.51,5.,7.51,        151P    123
142.49,5.,7.51,152.51,5.,-0.001,1.001,-0.001,1.501;                  151P    124
128,1,1,1,1,0,0,1,0,0,-0.751,-0.751,0.751,0.751,-0.751,-0.751,       153P    125
0.751,0.751,1.,1.,1.,1.,-7.51,140.,-7.51,7.51,140.,-7.51,-7.51,      153P    126
140.,7.51,7.51,140.,7.51,-0.751,0.751,-0.751,0.751;                  153P    127
128,1,1,1,1,0,0,1,0,0,-0.001,-0.001,1.501,1.501,-0.001,-0.001,       155P    128
1.501,1.501,1.,1.,1.,1.,7.51,139.99,-7.5,-7.51,139.99,-7.5,7.51,     155P    129
155.01,-7.5,-7.51,155.01,-7.5,-0.001,1.501,-0.001,1.501;             155P    130
128,1,1,1,1,0,0,1,0,0,-0.001,-0.001,1.501,1.501,-0.001,-0.001,       157P    131
1.501,1.501,1.,1.,1.,1.,7.5,139.99,7.51,7.5,139.99,-7.51,7.5,        157P    132
155.01,7.51,7.5,155.01,-7.51,-0.001,1.501,-0.001,1.501;              157P    133
128,1,1,1,1,0,0,1,0,0,-0.001,-0.001,1.501,1.501,-0.001,-0.001,       159P    134
1.501,1.501,1.,1.,1.,1.,-7.51,139.99,7.5,7.51,139.99,7.5,-7.51,      159P    135
155.01,7.5,7.51,155.01,7.5,-0.001,1.501,-0.001,1.501;                159P    136
128,1,1,1,1,0,0,1,0,0,-0.001,-0.001,1.501,1.501,-0.001,-0.001,       161P    137
1.501,1.501,1.,1.,1.,1.,-7.5,139.99,-7.51,-7.5,139.99,7.51,-7.5,     161P    138
155.01,-7.51,-7.5,155.01,7.51,-0.001,1.501,-0.001,1.501;             161P    139
128,1,1,1,1,0,0,1,0,0,-0.751,-0.751,0.751,0.751,-0.751,-0.751,       163P    140
0.751,0.751,1.,1.,1.,1.,-7.51,155.,-7.51,-7.51,155.,7.51,7.51,       163P    141
155.,-7.51,7.51,155.,7.51,-0.751,0.751,-0.751,0.751;                 163P    142
128,1,1,1,1,0,0,1,0,0,-0.001,-0.001,1.001,1.001,-8.751,-8.751,       165P    143
14.001,14.001,1.,1.,1.,1.,-5.01,-87.51,5.,5.01,-87.51,5.,-5.01,      165P    144
140.01,5.,5.01,140.01,5.,-0.001,1.001,-8.751,14.001;                 165P    145
128,1,1,1,1,0,0,1,0,0,-0.001,-0.001,1.001,1.001,-8.751,-8.751,       167P    146
14.001,14.001,1.,1.,1.,1.,-5.,-87.51,-5.01,-5.,-87.51,5.01,-5.,      167P    147
140.01,-5.01,-5.,140.01,5.01,-0.001,1.001,-8.751,14.001;             167P    148
128,1,1,1,1,0,0,1,0,0,-0.001,-0.001,1.001,1.001,-8.751,-8.751,       169P    149
14.001,14.001,1.,1.,1.,1.,5.01,-87.51,-5.,-5.01,-87.51,-5.,5.01,     169P    150
140.01,-5.,-5.01,140.01,-5.,-0.001,1.001,-8.751,14.001;              169P    151
128,1,1,1,1,0,0,1,0,0,-0.001,-0.001,1.001,1.001,-8.751,-8.751,       171P    152
14.001,14.001,1.,1.,1.,1.,5.,-87.51,5.01,5.,-87.51,-5.01,5.,         171P    153
140.01,5.01,5.,140.01,-5.01,-0.001,1.001,-8.751,14.001;              171P    154
502,24,5.,-87.5,-5.,5.,-87.5,5.,-5.,-87.5,5.,-5.,-87.5,-5.,7.5,      173P    155
152.5,5.,7.5,152.5,-5.,-7.5,152.5,5.,-7.5,152.5,-5.,7.5,142.5,       173P    156
-5.,-7.5,142.5,-5.,7.5,142.5,5.,-7.5,142.5,5.,-7.5,140.,-7.5,        173P    157
-7.5,140.,7.5,7.5,140.,-7.5,7.5,140.,7.5,-5.,140.,5.,5.,140.,5.,     173P    158
5.,140.,-5.,-5.,140.,-5.,-7.5,155.,-7.5,7.5,155.,-7.5,7.5,155.,      173P    159
7.5,-7.5,155.,7.5;                                                   173P    160
504,36,71,173,1,173,2,73,173,2,173,3,75,173,3,173,4,77,173,4,        175P    161
173,1,79,173,5,173,6,81,173,7,173,5,83,173,8,173,7,85,173,8,173,     175P    162
6,87,173,6,173,9,89,173,10,173,8,91,173,10,173,9,93,173,9,173,       175P    163
11,95,173,12,173,10,97,173,12,173,11,99,173,11,173,5,101,173,7,      175P    164
173,12,103,173,13,173,14,105,173,15,173,13,107,173,16,173,15,        175P    165
109,173,14,173,16,111,173,17,173,18,113,173,18,173,19,115,173,       175P    166
19,173,20,117,173,20,173,17,119,173,13,173,21,121,173,22,173,21,     175P    167
123,173,15,173,22,125,173,23,173,22,127,173,16,173,23,129,173,       175P    168
24,173,23,131,173,14,173,24,133,173,21,173,24,135,173,18,173,2,      175P    169
137,173,3,173,17,139,173,4,173,20,141,173,1,173,19;                  175P    170
406,1,5HBody1;                                                       177P    171
314,26.6666666666667,58.8235294117647,28.2352941176471,29HPaint      179P    172
- Enamel Glossy (Green);                                             179P    173
314,62.7450980392157,62.7450980392157,62.7450980392157,13HSteel      181P    174
- Satin;                                                             181P    175
S      1G      3D    182P    175                                        T      1
